<svg width="48" height="46" viewBox="0 0 48 46" fill="none" xmlns="http://www.w3.org/2000/svg">
<path d="M8.25943 44.0399C8.43418 44.7969 9.18951 45.2685 9.94588 45.0938L24.1015 41.8266L37.7921 45.0892C38.5473 45.2692 39.3059 44.8026 39.486 44.0473L47.9618 8.48129C48.1418 7.72587 47.6753 6.96744 46.9199 6.78735L27.4546 2.14866C27.4477 2.13929 27.1135 0.721516 25.7544 1.03549L24.2453 1.38386L22.2973 0.919616C20.8044 0.564116 20.5433 2.23032 20.537 2.23969L1.09075 6.7281C0.334006 6.90275 -0.137832 7.6578 0.0368221 8.41454L8.25943 44.0399ZM44.9 9.1973L37.0761 42.0275L30.2645 40.4041L34.6097 39.4012C35.3659 39.2267 35.8384 38.4714 35.6636 37.7148L34.5647 32.9536C36.218 30.8378 37.5244 28.0122 38.2519 24.9619C40.0813 17.2916 37.9092 10.4234 33.307 9.3258C31.9815 9.0097 30.5976 9.199 29.237 9.871L28.1608 5.20815L44.9 9.1973ZM29.8966 12.7291C30.6524 12.237 31.6456 11.821 32.6546 12.0616C36.4047 12.9559 36.4643 20.3341 35.5161 24.3095C35.0983 26.0615 34.47 27.7176 33.6889 29.1595L29.8966 12.7291ZM25.0167 4.09217L32.6069 36.9772L10.6835 42.0372L3.0935 9.1523C3.66902 9.0194 24.3507 4.24591 25.0167 4.09217Z" fill="#FF77A8"/>
<path d="M18.6896 29.8859C19.1763 30.0404 19.7115 29.9191 20.0846 29.5638C24.7078 25.1617 24.6971 21.467 24.2791 19.6564C23.672 17.0259 21.5025 15.0054 19.0089 15.581C17.878 15.842 17.0554 16.495 16.4949 17.1943C15.6846 16.8115 14.659 16.5851 13.5281 16.8461C11.022 17.4246 9.97321 20.2024 10.5771 22.8189C10.9951 24.6295 12.6046 27.9552 18.6896 29.8859ZM14.1607 19.5865C14.8075 19.4372 15.4935 19.738 15.9285 20.1794C16.6268 20.9792 17.9901 20.734 18.3144 19.6216C18.3175 19.6109 18.6687 18.546 19.6415 18.3215C20.5451 18.1125 21.316 19.3238 21.5388 20.2889C21.9827 22.2121 20.9679 24.6025 18.7424 26.9314C15.7211 25.8134 13.7615 24.1096 13.3176 22.1864C13.0977 21.2336 13.2567 19.7951 14.1607 19.5865Z" fill="#FF77A8"/>
<path d="M9.52308 11.9978C9.34842 11.241 8.59345 10.7691 7.83661 10.9438C7.07986 11.1185 6.60802 11.8736 6.78267 12.6303L7.4152 15.3708C7.58958 16.1264 8.3438 16.5997 9.10167 16.4247C9.85842 16.2501 10.3303 15.495 10.1556 14.7383L9.52308 11.9978Z" fill="#FF77A8"/>
<path d="M26.1777 34.1316C26.3521 34.8875 27.1066 35.3605 27.8642 35.1856C28.6209 35.0109 29.0927 34.2559 28.9181 33.4991L28.2856 30.7587C28.111 30.0019 27.355 29.5301 26.5992 29.7048C25.8423 29.8794 25.3705 30.6345 25.5451 31.3912L26.1777 34.1316Z" fill="#FF77A8"/>
</svg>
