<svg width="48" height="48" viewBox="0 0 48 48" fill="none" xmlns="http://www.w3.org/2000/svg">
<path d="M24 0C19.2533 0 14.6131 1.40758 10.6663 4.04473C6.71954 6.68188 3.64341 10.4302 1.8269 14.8156C0.0103989 19.201 -0.464881 24.0266 0.461164 28.6822C1.38721 33.3377 3.67299 37.6141 7.02945 40.9706C10.3859 44.327 14.6623 46.6128 19.3178 47.5388C23.9734 48.4649 28.799 47.9896 33.1844 46.1731C37.5698 44.3566 41.3181 41.2805 43.9553 37.3337C46.5924 33.3869 48 28.7468 48 24C47.9929 17.637 45.462 11.5367 40.9627 7.03733C36.4634 2.53801 30.363 0.00714633 24 0ZM24 44C20.0444 44 16.1776 42.827 12.8886 40.6294C9.59962 38.4318 7.03617 35.3082 5.52242 31.6537C4.00867 27.9992 3.6126 23.9778 4.38431 20.0982C5.15601 16.2186 7.06082 12.6549 9.85787 9.85787C12.6549 7.06081 16.2186 5.156 20.0982 4.38429C23.9778 3.61259 27.9992 4.00866 31.6537 5.52241C35.3082 7.03616 38.4318 9.59961 40.6294 12.8886C42.827 16.1776 44 20.0444 44 24C43.994 29.3025 41.8849 34.3861 38.1355 38.1355C34.3861 41.8849 29.3025 43.994 24 44Z" fill="#CE156E"/>
<path d="M27 14H20C19.4696 14 18.9609 14.2107 18.5858 14.5858C18.2107 14.9609 18 15.4696 18 16V36H22V28H27C28.8565 28 30.637 27.2625 31.9497 25.9497C33.2625 24.637 34 22.8565 34 21C34 19.1435 33.2625 17.363 31.9497 16.0503C30.637 14.7375 28.8565 14 27 14ZM27 24H22V18H27C27.7956 18 28.5587 18.3161 29.1213 18.8787C29.6839 19.4413 30 20.2043 30 21C30 21.7956 29.6839 22.5587 29.1213 23.1213C28.5587 23.6839 27.7956 24 27 24Z" fill="#CE156E"/>
</svg>
