<svg width="48" height="48" viewBox="0 0 48 48" fill="none" xmlns="http://www.w3.org/2000/svg">
<path d="M37.7039 2.71771C36.1445 0.965154 33.9829 0 31.6172 0C28.9767 0 26.6878 1.24856 24.9979 3.61059C24.8712 3.78768 24.7527 3.96477 24.6416 4.14009C24.5306 3.96468 24.4121 3.78768 24.2853 3.61059C22.5954 1.24856 20.3065 0 17.6659 0C15.3003 0 13.1386 0.965154 11.5792 2.71762C10.0995 4.38074 9.28442 6.60411 9.28442 8.97814C9.28442 11.558 10.2856 13.9386 12.4348 16.4702C14.3101 18.679 16.9999 20.9493 20.1147 23.5783C21.2657 24.5498 22.4559 25.5543 23.7207 26.6505C23.9849 26.8795 24.3132 26.994 24.6415 26.994C24.9697 26.994 25.298 26.8795 25.5623 26.6505C26.8269 25.5546 28.017 24.5501 29.1679 23.5787C31.1683 21.8903 32.8958 20.4322 34.3949 19.0179C37.3055 16.2718 39.9987 13.1549 39.9987 8.97823C39.9987 6.60411 39.1838 4.38084 37.7039 2.71771ZM32.4653 16.9726C31.0229 18.3335 29.3228 19.7684 27.3543 21.4298C26.4786 22.1688 25.5805 22.9269 24.6416 23.732C23.7025 22.927 22.8041 22.1687 21.9284 21.4295C15.7972 16.2546 12.0964 13.1311 12.0964 8.97823C12.0962 5.4629 14.4905 2.81203 17.6658 2.81203C19.3622 2.81203 20.805 3.61059 21.9539 5.18549C22.8968 6.47793 23.2839 7.8178 23.2865 7.8268C23.4553 8.43589 24.0095 8.85758 24.6415 8.85758C25.2735 8.85758 25.8277 8.43589 25.9965 7.8268C26.0103 7.77664 27.4336 2.81203 31.6172 2.81203C34.7924 2.81203 37.1869 5.46299 37.1869 8.97823C37.1869 11.5253 35.8631 13.7667 32.4653 16.9726Z" fill="#FF7171"/>
<path d="M43.7771 28.3169C42.6108 28.3169 41.4857 28.8065 40.6904 29.6602L36.5582 34.0963C36.0241 32.3792 34.4202 31.1288 32.5297 31.1288H26.0347C25.1254 31.1288 24.2486 30.798 23.5659 30.1972C19.8944 26.9662 14.3757 26.9378 10.6693 30.1079C9.90494 29.0257 8.6455 28.317 7.22276 28.317H1.41158C0.635145 28.317 0.00561523 28.9464 0.00561523 29.7229V46.5942C0.00561523 47.3706 0.635051 48.0001 1.41158 48.0001H7.22276C8.48538 48.0001 9.61938 47.4417 10.393 46.5597L11.2256 46.7937C14.0735 47.5942 17.0175 48 19.9757 48H32.5296C35.6108 48 38.554 46.5284 40.4028 44.0634L47.1527 35.0637C47.1528 35.0635 47.1529 35.0633 47.1531 35.0631C47.7038 34.3287 47.9949 33.4544 47.9949 32.5346C47.9949 30.2089 46.1028 28.3169 43.7771 28.3169ZM8.62872 43.7821C8.62872 44.5574 7.99807 45.1881 7.22276 45.1881H2.81745V31.1287H7.22276C7.99798 31.1287 8.62872 31.7594 8.62872 32.5347V43.7821ZM44.9033 33.3763C44.9033 33.3764 44.9032 33.3764 44.9032 33.3765L38.1534 42.3764C36.8328 44.1371 34.7305 45.1882 32.5296 45.1882H19.976C17.275 45.1882 14.587 44.8176 11.9867 44.0867L11.4369 43.9321C11.4387 43.8823 11.4407 43.8325 11.4407 43.7822V33.1702L12.4205 32.308C15.068 29.9783 19.0609 29.9781 21.7086 32.308C22.9049 33.3607 24.4412 33.9405 26.0349 33.9405H32.5299C33.3051 33.9405 33.9358 34.5712 33.9358 35.3464C33.9358 36.1216 33.3052 36.7524 32.5299 36.7524H22.5375C21.7611 36.7524 21.1316 37.3818 21.1316 38.1584C21.1316 38.9349 21.761 39.5643 22.5375 39.5643H33.472C34.6383 39.5643 35.7632 39.0749 36.5583 38.2214L42.7479 31.5768C43.0171 31.2878 43.3826 31.1287 43.7771 31.1287C44.5523 31.1287 45.1831 31.7594 45.1831 32.5347C45.1831 32.8412 45.0863 33.1322 44.9033 33.3763Z" fill="#FF7171"/>
</svg>
