<svg width="48" height="44" viewBox="0 0 48 44" fill="none" xmlns="http://www.w3.org/2000/svg">
<path d="M43.2701 6.49968C43.0114 3.16071 40.2138 0.522461 36.8097 0.522461H6.48206C2.90784 0.522461 0 3.4303 0 7.00452V36.9956C0 40.5698 2.90784 43.4776 6.48206 43.4776H41.518C45.0923 43.4776 48.0001 40.5698 48.0001 36.9956V12.7391C48 9.7721 45.9955 7.26617 43.2701 6.49968ZM6.48206 3.55058H36.8098C38.4576 3.55058 39.8387 4.71082 40.1813 6.25715H6.48206C5.213 6.25715 4.02891 6.62516 3.02812 7.25803V7.00452C3.02812 5.10003 4.57757 3.55058 6.48206 3.55058ZM41.5179 40.4495H6.48206C4.57757 40.4495 3.02812 38.9001 3.02812 36.9956V12.7391C3.02812 10.8346 4.57757 9.2852 6.48206 9.2852H41.518C43.4225 9.2852 44.972 10.8346 44.972 12.7391V18.023H35.3174C31.4916 18.023 28.379 21.1356 28.379 24.9614C28.379 28.7873 31.4917 31.8999 35.3174 31.8999H44.9719V36.9956C44.9719 38.9001 43.4224 40.4495 41.5179 40.4495ZM44.9719 28.8718H35.3174C33.1613 28.8718 31.4072 27.1177 31.4072 24.9614C31.4072 22.8052 33.1613 21.0511 35.3174 21.0511H44.9719V28.8718Z" fill="#BFAC00"/>
<path d="M35.8795 26.6526C36.7501 26.6526 37.4559 25.9469 37.4559 25.0763C37.4559 24.2057 36.7501 23.5 35.8795 23.5C35.009 23.5 34.3032 24.2057 34.3032 25.0763C34.3032 25.9469 35.009 26.6526 35.8795 26.6526Z" fill="#BFAC00"/>
</svg>
