<svg width="48" height="48" viewBox="0 0 48 48" fill="none" xmlns="http://www.w3.org/2000/svg">
<path d="M45.3994 21.5206C46.9248 20.8846 48 19.3782 48 17.625C48 15.2988 46.1075 13.4062 43.7812 13.4062H41.4198L40.6786 11.1828C39.7202 8.30709 37.0395 6.375 34.0082 6.375H32.4375V4.96875C32.4375 2.64253 30.545 0.75 28.2188 0.75H19.7812C17.455 0.75 15.5625 2.64253 15.5625 4.96875V6.375H13.9918C10.9606 6.375 8.27991 8.30709 7.32141 11.1828L6.58022 13.4062H4.21875C1.89253 13.4062 0 15.2988 0 17.625C0 19.3782 1.07522 20.8846 2.60063 21.5205L1.38647 22.7082C0.467906 23.6069 0.0128437 24.8558 0.138 26.1349L1.28138 37.8171C1.39941 39.0233 2.00962 40.0642 2.9025 40.7515L2.90625 43.9688C2.90625 45.778 4.37822 47.25 6.1875 47.25H9.46875C11.278 47.25 12.75 45.778 12.75 43.9688V41.625H35.25V43.9688C35.25 45.778 36.722 47.25 38.5312 47.25H41.8125C43.6218 47.25 45.0938 45.778 45.0938 43.9688V40.7705C46.0011 40.0823 46.621 39.0308 46.7386 37.8111L47.8644 26.1306C47.9875 24.8538 47.5322 23.607 46.6153 22.7101L45.3994 21.5206ZM43.9391 37.5411C43.8692 38.2659 43.2674 38.8125 42.5393 38.8125H5.48006C4.75303 38.8125 4.15134 38.2669 4.08047 37.5432L3.78262 34.5H7.5105C9.62156 34.5 11.3391 32.7826 11.3391 30.6714C11.3391 28.9732 10.2472 27.5009 8.622 27.0079L2.99691 25.3013C3.18291 24.7106 3.40134 24.7463 6.19781 21.9361C17.7943 23.6816 30.1992 23.6826 41.8022 21.9361C44.6128 24.7588 44.8155 24.7132 45.0026 25.2954L39.3979 26.9699C37.7637 27.458 36.6352 28.99 36.6533 30.6954C36.6757 32.7933 38.4006 34.5 40.4986 34.5H44.2322L43.9391 37.5411ZM3.17531 28.2944L7.80553 29.6992C8.91909 30.0372 8.67347 31.6875 7.5105 31.6875H3.50737L3.17531 28.2944ZM40.4986 31.6875C39.935 31.6875 39.4716 31.229 39.4656 30.6655C39.4607 30.2074 39.7639 29.7959 40.2029 29.6647L44.8315 28.2818L44.5033 31.6875H40.4986ZM43.7812 16.2188C44.5567 16.2188 45.1875 16.8496 45.1875 17.625C45.1875 18.4004 44.5567 19.0312 43.7812 19.0312H43.2949L42.3574 16.2188H43.7812ZM18.375 4.96875C18.375 4.19334 19.0058 3.5625 19.7812 3.5625H28.2188C28.9942 3.5625 29.625 4.19334 29.625 4.96875V6.375H18.375V4.96875ZM9.98953 12.0722C10.5646 10.3468 12.173 9.1875 13.9917 9.1875H34.0082C35.8269 9.1875 37.4353 10.3467 38.0105 12.0722L40.4168 19.2914C29.3161 20.8159 18.6933 20.8171 7.58306 19.2914L9.98953 12.0722ZM4.21875 16.2188H5.64272L4.70522 19.0312H4.21875C3.44334 19.0312 2.8125 18.4004 2.8125 17.625C2.8125 16.8496 3.44334 16.2188 4.21875 16.2188ZM9.9375 43.9688C9.9375 44.2272 9.72722 44.4375 9.46875 44.4375H6.1875C5.92903 44.4375 5.71875 44.2272 5.71875 43.9671L5.71594 41.625H9.9375V43.9688ZM41.8125 44.4375H38.5312C38.2728 44.4375 38.0625 44.2272 38.0625 43.9688V41.625H42.2812V43.9688C42.2812 44.2272 42.071 44.4375 41.8125 44.4375Z" fill="#E7B609"/>
<path d="M32.4375 27.4688H15.5625C14.7859 27.4688 14.1562 28.0984 14.1562 28.875C14.1562 32.7506 17.3093 35.9043 21.1852 35.9048C21.1962 35.9048 26.8239 35.9053 26.8139 35.9053C28.6913 35.9053 30.4567 35.1741 31.7843 33.8466C34.0439 31.5875 33.8417 28.885 33.8438 28.875C33.8438 28.0984 33.2141 27.4688 32.4375 27.4688ZM29.7957 31.8577C28.4405 33.2129 26.8237 33.0907 26.8132 33.0928L21.1854 33.0923C19.3533 33.092 17.7902 31.9171 17.2099 30.2812H30.7923C30.5857 30.8677 30.2484 31.405 29.7957 31.8577Z" fill="#E7B609"/>
</svg>
